<?xml version="1.0" encoding="iso-8859-1"?>
<!-- Generator: Adobe Illustrator 19.0.0, SVG Export Plug-In . SVG Version: 6.00 Build 0)  -->
<svg version="1.1" id="Layer_1" xmlns="http://www.w3.org/2000/svg" xmlns:xlink="http://www.w3.org/1999/xlink" x="0px" y="0px"
	 viewBox="0 0 504 504" style="enable-background:new 0 0 504 504;" xml:space="preserve">
<circle style="fill:#90DFAA;" cx="252" cy="252" r="252"/>
<rect x="94.5" y="94.5" style="fill:#324A5E;" width="315" height="315"/>
<g>
	<rect x="122.1" y="168.6" style="fill:#FFFFFF;" width="259.9" height="213.3"/>
	<rect x="122.1" y="118" style="fill:#FFFFFF;" width="32.5" height="19.2"/>
</g>
<rect x="175.7" y="118" style="fill:#F9B54C;" width="32.5" height="19.2"/>
<g>
	<rect x="229.4" y="118" style="fill:#54C0EB;" width="32.5" height="19.2"/>
	<path style="fill:#54C0EB;" d="M239.6,316l53.1-53.1c13.5,3.7,28.5,0.2,39.1-10.4s14-25.6,10.4-39.1l-24.8,24.8l-28.3-28.3
		l24.8-24.8c-13.5-3.7-28.5-0.2-39.1,10.4c-10.6,10.6-14,25.6-10.4,39.1l-53.1,53.1c-13.5-3.7-28.5-0.2-39.1,10.4
		s-14,25.6-10.4,39.1l24.8-24.8l28.3,28.3l-24.8,24.8c13.5,3.7,28.5,0.2,39.1-10.4C239.8,344.5,243.3,329.5,239.6,316z"/>
</g>
<rect x="233.407" y="260.66" transform="matrix(-0.7071 0.7071 -0.7071 -0.7071 608.1482 284.7169)" style="fill:#2B3B4E;" width="23.4" height="15.3"/>
<polygon style="fill:#324A5E;" points="171.6,183.6 160.3,194.9 168.6,209.5 183.3,217.8 234,268.5 245.3,257.3 194.5,206.6 
	186.3,191.9 "/>
<rect x="234.181" y="307.519" transform="matrix(0.7071 0.7071 -0.7071 0.7071 306.1976 -113.1891)" style="fill:#F1543F;" width="111.099" height="11"/>
<path style="fill:#FF7058;" d="M242.4,281.8c-1.3,1.3-2.2,2.8-2.8,4.4l77,77c1.6-0.6,3.1-1.5,4.4-2.8l4.2-4.2l-78.6-78.6
	L242.4,281.8z"/>
<path style="fill:#F1543F;" d="M244.4,303.9l54.4,54.4c5.2,5.2,12.3,6.8,17.8,4.8l-77-77C237.6,291.7,239.2,298.8,244.4,303.9z"/>
<path style="fill:#FF7058;" d="M258.5,265.7l-4.2,4.2l78.6,78.6l4.2-4.2c1.3-1.3,2.2-2.8,2.8-4.4l-77-77
	C261.3,263.5,259.8,264.4,258.5,265.7z"/>
<path style="fill:#F1543F;" d="M262.9,262.9l77,77c2.1-5.5,0.4-12.6-4.8-17.8l-54.4-54.4C275.5,262.5,268.4,260.8,262.9,262.9z"/>
<g>
</g>
<g>
</g>
<g>
</g>
<g>
</g>
<g>
</g>
<g>
</g>
<g>
</g>
<g>
</g>
<g>
</g>
<g>
</g>
<g>
</g>
<g>
</g>
<g>
</g>
<g>
</g>
<g>
</g>
</svg>
